<?xml version="1.0" encoding="utf-8"?>
<!-- Generator: Adobe Illustrator 18.0.0, SVG Export Plug-In . SVG Version: 6.00 Build 0)  -->
<!DOCTYPE svg PUBLIC "-//W3C//DTD SVG 1.1//EN" "http://www.w3.org/Graphics/SVG/1.1/DTD/svg11.dtd">
<svg version="1.1" id="Layer_1" xmlns="http://www.w3.org/2000/svg" xmlns:xlink="http://www.w3.org/1999/xlink" x="0px" y="0px"
	 viewBox="8 113 582.2 389.9" enable-background="new 8 113 582.2 389.9" xml:space="preserve">
<g>
	<g>
		<path fill="#D2AC2B" d="M249.2,184.5h-18.6v-55.7h-15.4V113h49.3v15.7h-15.4V184.5z"/>
		<path fill="#D2AC2B" d="M321.4,140.6V113H340v71.5h-18.6v-29.3h-26.8v29.3H276V113h18.6v27.6H321.4z"/>
		<path fill="#D2AC2B" d="M375.4,128.7v11.9h21v15.7h-21v12.3h22.1v15.7h-40.7V113h40.7v15.7H375.4z"/>
	</g>
	<g>
		<path fill="#D2AC2B" d="M62.7,236.1c-3.8-5.1-10-7.9-16.3-7.9c-11.4,0-19.1,8.7-19.1,19.8c0,11.3,7.8,19.4,19.3,19.4
			c6.1,0,12.1-2.9,16-7.6v22.3c-6.2,1.9-10.6,3.3-16.4,3.3c-10,0-19.4-3.8-26.8-10.5C11.6,267.9,8,258.6,8,248
			c0-9.8,3.7-19.2,10.5-26.2c7-7.2,17.2-11.6,27.2-11.6c6,0,11.5,1.3,17,3.6V236.1z"/>
		<path fill="#D2AC2B" d="M154.4,246.5c0,23.1-16.6,39.4-39.5,39.4c-22.9,0-39.5-16.3-39.5-39.4c0-21.6,19-36.8,39.5-36.8
			C135.4,209.7,154.4,224.9,154.4,246.5z M94.6,246.6c0,12.3,9.1,21.3,20.2,21.3c11.1,0,20.2-9,20.2-21.3c0-9.9-9.1-18.9-20.2-18.9
			C103.7,227.8,94.6,236.8,94.6,246.6z"/>
		<path fill="#D2AC2B" d="M175.6,212.1h18.3l14.5,38.2l15.4-38.2h18.5l10.8,71.5h-18.6l-5.2-41.1h-0.2l-17.2,41.1h-7.4l-16.4-41.1
			h-0.2l-6,41.1h-18.5L175.6,212.1z"/>
		<path fill="#D2AC2B" d="M273.5,212.1h18.3l14.5,38.2l15.4-38.2h18.5l10.8,71.5h-18.6l-5.2-41.1H327l-17.2,41.1h-7.4L286,242.5
			h-0.2l-6,41.1h-18.5L273.5,212.1z"/>
		<path fill="#D2AC2B" d="M439.1,246.5c0,23.1-16.6,39.4-39.5,39.4c-22.9,0-39.5-16.3-39.5-39.4c0-21.6,19-36.8,39.5-36.8
			C420.1,209.7,439.1,224.9,439.1,246.5z M379.3,246.6c0,12.3,9.1,21.3,20.2,21.3c11.1,0,20.2-9,20.2-21.3c0-9.9-9.1-18.9-20.2-18.9
			C388.4,227.8,379.3,236.8,379.3,246.6z"/>
		<path fill="#D2AC2B" d="M452.4,212.1H471l34,43.7h0.2v-43.7h18.6v71.5h-18.6l-34-43.8H471v43.8h-18.6L452.4,212.1L452.4,212.1z"/>
		<path fill="#D2AC2B" d="M579.9,230.5c-3.4-2.8-7.8-4.7-12.3-4.7c-3.4,0-8,2-8,6c0,4.2,5,5.8,8.2,6.8l4.7,1.4
			c10,2.9,17.6,8,17.6,19.5c0,7.1-1.7,14.4-7.4,19.2c-5.6,4.7-13.1,6.7-20.3,6.7c-9,0-17.8-3-25.1-8.2l8-15
			c4.6,4.1,10.1,7.4,16.5,7.4c4.4,0,9-2.2,9-7.2c0-5.2-7.3-7-11.3-8.2c-11.7-3.3-19.3-6.4-19.3-20.2c0-14.5,10.3-24,24.7-24
			c7.2,0,16,2.3,22.4,5.9L579.9,230.5z"/>
	</g>
	<g>
		<path fill="#D2AC2B" d="M27.3,390.7H34l12.4,15.9h0.1v-15.9h6.8v26h-6.8l-12.4-15.9H34v15.9h-6.8L27.3,390.7L27.3,390.7z"/>
		<path fill="#D2AC2B" d="M88.5,403.2c0,8.4-6,14.3-14.4,14.3c-8.3,0-14.4-5.9-14.4-14.3c0-7.9,6.9-13.4,14.4-13.4
			C81.6,389.8,88.5,395.3,88.5,403.2z M66.8,403.2c0,4.5,3.3,7.8,7.3,7.8c4,0,7.3-3.3,7.3-7.8c0-3.6-3.3-6.9-7.3-6.9
			C70.1,396.4,66.8,399.7,66.8,403.2z"/>
		<path fill="#D2AC2B" d="M116.7,416.7h-8.4l-6.4-10h-0.1v10h-6.8v-26h10.1c5.1,0,9,2.4,9,8c0,3.6-2,6.7-5.7,7.3L116.7,416.7z
			 M101.9,402.3h0.7c2.2,0,4.7-0.4,4.7-3.2s-2.5-3.2-4.7-3.2h-0.7V402.3z"/>
		<path fill="#D2AC2B" d="M132.3,416.7h-6.8v-20.3H120v-5.7h17.9v5.7h-5.6L132.3,416.7L132.3,416.7z"/>
		<path fill="#D2AC2B" d="M160.3,400.7v-10h6.8v26h-6.8V406h-9.8v10.7h-6.8v-26h6.8v10H160.3z"/>
	</g>
	<g>
		<g>
			<path fill="#D2AC2B" d="M445.6,390.7h10.3c5.6,0,9.5,2.6,9.5,8.6c0,6.1-3.3,8.8-9.2,8.8h-3.8v8.6h-6.8L445.6,390.7L445.6,390.7z
				 M452.3,402.6h1.1c2.4,0,4.9,0,4.9-3.2c0-3.3-2.2-3.3-4.9-3.3h-1.1V402.6z"/>
			<path fill="#D2AC2B" d="M479.3,412.2l-1.8,4.5h-7.2l10-26h7.4l9.8,26h-7.2l-1.7-4.5H479.3z M484.1,398.7L484.1,398.7l-2.9,8.3
				h5.6L484.1,398.7z"/>
			<path fill="#D2AC2B" d="M528.2,416.7h-8.4l-6.4-10h-0.1v10h-6.8v-26h10.1c5.1,0,9,2.4,9,8c0,3.6-2,6.7-5.7,7.3L528.2,416.7z
				 M513.3,402.3h0.7c2.2,0,4.7-0.4,4.7-3.2s-2.5-3.2-4.7-3.2h-0.7V402.3z"/>
			<path fill="#D2AC2B" d="M551.9,390.7h8.4L549.9,403l11.3,13.7h-8.8l-8.7-11.3h-0.1v11.3h-6.8v-26h6.8v10.7h0.1L551.9,390.7z"/>
		</g>
	</g>
	<g>
		<path fill="#D2AC2B" d="M332.6,368.9c7.2-7,11.6-17.2,11.6-27.2c0-6-1.3-11.5-3.6-17h-20.3c3.4,3.9,5.9,10,5.9,16.3
			c0,11.4-8.7,19-19.7,19.1c-11.1,0-19.8-7.7-19.8-19.1c0-6.4,2.4-12.4,5.9-16.3h-20.3c-2.3,5.5-3.6,11-3.6,17
			c0,10,4.4,20.2,11.6,27.2c4.8,4.6,10.6,7.8,16.9,9.4v43.4h-15.4v15.7H331v-15.7h-15.4v-43.4C322,376.6,327.8,373.5,332.6,368.9z"
			/>
		<path fill="#D2AC2B" d="M340.5,502.9h-20.3c3.4-3.9,5.9-10,5.9-16.3c0-11.4-8.7-19-19.7-19.1c-11.1,0-19.8,7.7-19.8,19.1
			c0,6.4,2.4,12.4,5.9,16.3h-20.3c-2.3-5.5-3.6-11-3.6-17c0-10,4.4-20.2,11.6-27.2c7-6.8,16.4-10.5,26.2-10.5l0.1,0
			c9.8,0,19.2,3.7,26.2,10.5c7.2,7,11.6,17.2,11.6,27.2C344.1,491.9,342.8,497.4,340.5,502.9z"/>
		<g>
			<path fill="#D2AC2B" d="M215.3,369.5v20.3c3.9-3.4,10-5.9,16.3-5.9c11.4,0,19,8.7,19.1,19.7c0,11.1-7.7,19.8-19.1,19.8
				c-6.3,0-12.4-2.4-16.3-5.9v20.3c5.5,2.3,11,3.6,17,3.6c10,0,20.2-4.4,27.2-11.6c6.8-7,10.5-16.4,10.5-26.2c0,0,0-0.1,0-0.1
				c0-9.8-3.7-19.2-10.5-26.2c-7-7.2-17.2-11.6-27.2-11.6C226.3,365.9,220.8,367.2,215.3,369.5z"/>
			<path fill="#D2AC2B" d="M397.5,369.5v20.3c-3.9-3.4-10-5.9-16.3-5.9c-11.4,0-19,8.7-19.1,19.7c0,11.1,7.7,19.8,19.1,19.8
				c6.4,0,12.4-2.4,16.3-5.9v20.3c-5.5,2.3-11,3.6-17,3.6c-10,0-20.2-4.4-27.2-11.6c-6.8-7-10.5-16.4-10.5-26.2c0,0,0-0.1,0-0.1
				c0-9.8,3.7-19.2,10.5-26.2c7-7.2,17.2-11.6,27.2-11.6C386.5,365.9,392,367.2,397.5,369.5z"/>
		</g>
	</g>
</g>
</svg>
