<?xml version="1.0" encoding="utf-8"?>
<!-- Generator: Adobe Illustrator 16.0.0, SVG Export Plug-In . SVG Version: 6.00 Build 0)  -->
<!DOCTYPE svg PUBLIC "-//W3C//DTD SVG 1.1//EN" "http://www.w3.org/Graphics/SVG/1.1/DTD/svg11.dtd">
<svg version="1.1" id="Layer_1" xmlns="http://www.w3.org/2000/svg" xmlns:xlink="http://www.w3.org/1999/xlink" x="0px" y="0px"
	 width="600px" height="400px" viewBox="0 110 600 370"
	 enable-background="new 0 -100 600 500" xml:space="preserve">
<g>
	<g>
		<path fill="#FFFFFF" d="M249.209,169.497h-18.582v-55.749h-15.359V98.01h49.301v15.738h-15.36V169.497z"/>
		<path fill="#FFFFFF" d="M321.448,125.6V98.01h18.583v71.487h-18.583V140.2h-26.832v29.297h-18.585V98.01h18.585v27.59H321.448z"/>
		<path fill="#FFFFFF" d="M375.359,113.748v11.946h20.953v15.739h-20.953v12.325h22.092v15.739h-40.675V98.01h40.675v15.738H375.359
			z"/>
	</g>
	<g>
		<path fill="#FFFFFF" d="M62.706,221.103c-3.792-5.119-9.954-7.869-16.306-7.869c-11.378,0-19.058,8.723-19.058,19.816
			c0,11.283,7.774,19.437,19.342,19.437c6.068,0,12.136-2.939,16.022-7.585v22.281c-6.163,1.896-10.619,3.316-16.4,3.316
			c-9.957,0-19.437-3.791-26.833-10.523C11.604,252.865,8,243.574,8,232.954c0-9.765,3.699-19.151,10.524-26.168
			c7.017-7.205,17.162-11.566,27.211-11.566c5.973,0,11.473,1.328,16.971,3.603V221.103z"/>
		<path fill="#FFFFFF" d="M154.379,231.532c0,23.134-16.592,39.441-39.539,39.441c-22.944,0-39.536-16.307-39.536-39.441
			c0-21.616,18.963-36.786,39.536-36.786C135.416,194.746,154.379,209.916,154.379,231.532z M94.646,231.627
			c0,12.327,9.102,21.332,20.194,21.332c11.095,0,20.196-9.005,20.196-21.332c0-9.86-9.102-18.868-20.196-18.868
			C103.749,212.759,94.646,221.767,94.646,231.627z"/>
		<path fill="#FFFFFF" d="M175.602,197.116h18.3l14.505,38.208l15.359-38.208h18.488l10.811,71.488H234.48l-5.213-41.148h-0.19
			l-17.162,41.148h-7.394l-16.403-41.148h-0.189l-5.973,41.148h-18.49L175.602,197.116z"/>
		<path fill="#FFFFFF" d="M273.525,197.116h18.301l14.505,38.208l15.361-38.208h18.485l10.811,71.488h-18.582l-5.216-41.148h-0.189
			l-17.162,41.148h-7.394l-16.403-41.148h-0.19l-5.973,41.148h-18.49L273.525,197.116z"/>
		<path fill="#FFFFFF" d="M439.053,231.532c0,23.134-16.592,39.441-39.536,39.441c-22.943,0-39.535-16.307-39.535-39.441
			c0-21.616,18.961-36.786,39.535-36.786C420.09,194.746,439.053,209.916,439.053,231.532z M379.32,231.627
			c0,12.327,9.102,21.332,20.196,21.332c11.093,0,20.194-9.005,20.194-21.332c0-9.86-9.102-18.868-20.194-18.868
			C388.422,212.759,379.32,221.767,379.32,231.627z"/>
		<path fill="#FFFFFF" d="M452.407,197.116h18.583l34.037,43.707h0.19v-43.707H523.8v71.488h-18.582L471.179,224.8h-0.188v43.804
			h-18.583V197.116z"/>
		<path fill="#FFFFFF" d="M579.916,215.509c-3.414-2.845-7.775-4.74-12.326-4.74c-3.415,0-7.964,1.99-7.964,5.973
			c0,4.171,5.024,5.783,8.248,6.827l4.74,1.421c9.956,2.939,17.636,7.964,17.636,19.531c0,7.112-1.706,14.412-7.396,19.247
			c-5.594,4.74-13.084,6.73-20.291,6.73c-9.005,0-17.823-3.033-25.124-8.152l7.964-14.98c4.646,4.076,10.146,7.396,16.497,7.396
			c4.362,0,9.008-2.181,9.008-7.207c0-5.215-7.301-7.016-11.282-8.153c-11.663-3.319-19.342-6.353-19.342-20.195
			c0-14.506,10.335-23.987,24.65-23.987c7.206,0,16.023,2.275,22.376,5.878L579.916,215.509z"/>
	</g>
	<g>
		<path fill="#FFFFFF" d="M27.251,375.688h6.758l12.384,15.898h0.067v-15.898h6.758v26.002h-6.758l-12.38-15.932h-0.072v15.932
			h-6.758V375.688z"/>
		<path fill="#FFFFFF" d="M88.52,388.207c0,8.414-6.034,14.344-14.383,14.344c-8.344,0-14.378-5.93-14.378-14.344
			c0-7.865,6.897-13.381,14.378-13.381C81.623,374.826,88.52,380.342,88.52,388.207z M66.794,388.24c0,4.484,3.312,7.76,7.343,7.76
			c4.036,0,7.347-3.275,7.347-7.76c0-3.588-3.312-6.863-7.347-6.863C70.105,381.377,66.794,384.652,66.794,388.24z"/>
		<path fill="#FFFFFF" d="M116.713,401.689h-8.412l-6.379-10h-0.071v10h-6.76v-26.002h10.105c5.138,0,9.035,2.447,9.035,8
			c0,3.588-1.999,6.691-5.689,7.348L116.713,401.689z M101.851,387.344h0.654c2.207,0,4.689-0.414,4.689-3.242
			s-2.482-3.242-4.689-3.242h-0.654V387.344z"/>
		<path fill="#FFFFFF" d="M132.325,401.689h-6.758v-20.275h-5.588v-5.727h17.933v5.727h-5.586V401.689z"/>
		<path fill="#FFFFFF" d="M160.32,385.721v-10.033h6.758v26.002h-6.758v-10.654h-9.762v10.654H143.8v-26.002h6.758v10.033H160.32z"
			/>
	</g>
	<g>
		<g>
			<path fill="#FFFFFF" d="M445.584,375.688h10.343c5.589,0,9.451,2.586,9.451,8.553c0,6.139-3.312,8.828-9.207,8.828h-3.829v8.621
				h-6.758V375.688z M452.342,387.619h1.137c2.448,0,4.864,0,4.864-3.172c0-3.277-2.244-3.312-4.864-3.312h-1.137V387.619z"/>
			<path fill="#FFFFFF" d="M479.337,397.172l-1.793,4.518h-7.177l10.004-26.002h7.377l9.797,26.002h-7.209l-1.692-4.518H479.337z
				 M484.062,383.723h-0.071l-2.794,8.275h5.622L484.062,383.723z"/>
			<path fill="#FFFFFF" d="M528.15,401.689h-8.411l-6.382-10h-0.067v10h-6.762v-26.002h10.104c5.143,0,9.038,2.447,9.038,8
				c0,3.588-2.003,6.691-5.693,7.348L528.15,401.689z M513.29,387.344h0.652c2.207,0,4.692-0.414,4.692-3.242
				s-2.485-3.242-4.692-3.242h-0.652V387.344z"/>
			<path fill="#FFFFFF" d="M551.865,375.688h8.38l-10.344,12.311l11.276,13.691h-8.762l-8.725-11.275h-0.066v11.275h-6.763v-26.002
				h6.763v10.725h0.066L551.865,375.688z"/>
		</g>
	</g>
	<g>
		<path fill="#FFFFFF" d="M332.58,353.861c7.213-7.018,11.572-17.164,11.572-27.213c0-5.971-1.328-11.471-3.6-16.971h-20.291
			c3.436,3.861,5.875,9.957,5.875,16.307c0,11.354-8.686,19.02-19.742,19.053c-11.082-0.012-19.79-7.686-19.79-19.057
			c0-6.35,2.438-12.445,5.874-16.307h-20.291c-2.272,5.5-3.603,11-3.603,16.971c0,10.049,4.362,20.195,11.572,27.213
			c4.751,4.627,10.608,7.775,16.921,9.352v43.375h-15.359v15.742h49.301v-15.742H315.66v-43.373
			C321.979,361.635,327.832,358.486,332.58,353.861z"/>
		<path fill="#FFFFFF" d="M340.529,487.91H320.24c3.437-3.861,5.873-9.955,5.873-16.307c0-11.354-8.684-19.018-19.74-19.053
			c-11.081,0.012-19.79,7.688-19.79,19.059c0,6.35,2.436,12.445,5.875,16.305h-20.291c-2.271-5.5-3.603-11-3.603-16.971
			c0-10.049,4.36-20.193,11.572-27.213c7.011-6.824,16.403-10.523,26.166-10.523l0.093-0.004c9.763,0,19.154,3.699,26.167,10.523
			c7.211,7.02,11.569,17.164,11.569,27.213C344.131,476.91,342.802,482.41,340.529,487.91z"/>
		<g>
			<path fill="#FFFFFF" d="M215.269,354.469v20.289c3.861-3.438,9.956-5.873,16.306-5.873c11.355,0,19.02,8.684,19.054,19.74
				c-0.01,11.082-7.686,19.789-19.058,19.789c-6.349,0-12.445-2.436-16.306-5.873v20.289c5.5,2.273,11,3.604,16.971,3.604
				c10.049,0,20.194-4.359,27.213-11.572c6.826-7.012,10.525-16.402,10.525-26.166c0,0,0.003-0.061,0.003-0.092
				c0-9.764-3.699-19.154-10.524-26.166c-7.019-7.211-17.165-11.572-27.213-11.572C226.268,350.865,220.768,352.195,215.269,354.469
				z"/>
			<path fill="#FFFFFF" d="M397.451,354.49v20.289c-3.861-3.438-9.956-5.873-16.307-5.873c-11.354,0-19.02,8.682-19.054,19.74
				c0.011,11.08,7.687,19.789,19.058,19.789c6.351,0,12.445-2.436,16.307-5.873v20.289c-5.5,2.273-10.999,3.604-16.971,3.604
				c-10.049,0-20.194-4.361-27.213-11.572c-6.826-7.012-10.524-16.402-10.524-26.166c0-0.031-0.004-0.062-0.004-0.062
				c0-9.793,3.698-19.186,10.523-26.195c7.02-7.213,17.165-11.572,27.214-11.572C386.451,350.887,391.951,352.217,397.451,354.49z"
				/>
		</g>
	</g>
</g>
</svg>
