<?xml version="1.0" encoding="utf-8"?>
<!-- Generator: Adobe Illustrator 18.1.0, SVG Export Plug-In . SVG Version: 6.00 Build 0)  -->
<!DOCTYPE svg PUBLIC "-//W3C//DTD SVG 1.1//EN" "http://www.w3.org/Graphics/SVG/1.1/DTD/svg11.dtd">
<svg version="1.1" id="Layer_1" xmlns="http://www.w3.org/2000/svg" xmlns:xlink="http://www.w3.org/1999/xlink" x="0px" y="0px"
	 viewBox="0 0 84.6 82.7" enable-background="new 0 0 84.6 82.7" xml:space="preserve">
<g>
	<g>
		<path fill="#D2AC2A" d="M54.5,20.5c3.3-3.3,5.4-8,5.4-12.6c0-2.8-0.6-5.3-1.7-7.9h-9.4c1.6,1.8,2.7,4.6,2.7,7.6
			c0,5.3-4,8.8-9.2,8.8c-5.1,0-9.2-3.6-9.2-8.8c0-2.9,1.1-5.8,2.7-7.6h-9.4c-1.1,2.6-1.7,5.1-1.7,7.9c0,4.7,2,9.4,5.4,12.6
			c2.2,2.1,4.9,3.6,7.9,4.3V45h-7.1v7.3h22.9V45h-7.1V24.8C49.5,24.1,52.2,22.7,54.5,20.5z"/>
		<path fill="#D2AC2A" d="M58.1,82.7h-9.4c1.6-1.8,2.7-4.6,2.7-7.6c0-5.3-4-8.8-9.2-8.8c-5.1,0-9.2,3.6-9.2,8.8
			c0,2.9,1.1,5.8,2.7,7.6h-9.4c-1.1-2.6-1.7-5.1-1.7-7.9c0-4.7,2-9.4,5.4-12.6c3.3-3.2,7.6-4.9,12.1-4.9l0,0c4.5,0,8.9,1.7,12.1,4.9
			c3.3,3.3,5.4,8,5.4,12.6C59.8,77.6,59.2,80.2,58.1,82.7z"/>
		<g>
			<path fill="#D2AC2A" d="M0,20.8v9.4c1.8-1.6,4.6-2.7,7.6-2.7c5.3,0,8.8,4,8.8,9.2c0,5.1-3.6,9.2-8.8,9.2c-2.9,0-5.8-1.1-7.6-2.7
				v9.4c2.6,1.1,5.1,1.7,7.9,1.7c4.7,0,9.4-2,12.6-5.4c3.2-3.3,4.9-7.6,4.9-12.1c0,0,0,0,0,0c0-4.5-1.7-8.9-4.9-12.1
				c-3.3-3.3-8-5.4-12.6-5.4C5.1,19.1,2.6,19.7,0,20.8z"/>
			<path fill="#D2AC2A" d="M84.6,20.8v9.4c-1.8-1.6-4.6-2.7-7.6-2.7c-5.3,0-8.8,4-8.8,9.2c0,5.1,3.6,9.2,8.8,9.2
				c2.9,0,5.8-1.1,7.6-2.7v9.4c-2.6,1.1-5.1,1.7-7.9,1.7c-4.7,0-9.4-2-12.6-5.4c-3.2-3.3-4.9-7.6-4.9-12.1c0,0,0,0,0,0
				c0-4.5,1.7-8.9,4.9-12.2c3.3-3.3,8-5.4,12.6-5.4C79.5,19.1,82,19.7,84.6,20.8z"/>
		</g>
	</g>
</g>
</svg>
